<svg xmlns="http://www.w3.org/2000/svg" width="188" height="187.999" viewBox="0 0 188 187.999">
  <path id="Sustracción_5" data-name="Sustracción 5" d="M188,188H0V0H188V188Zm-47.293-43.442-4.032,7.632a23.828,23.828,0,0,0,6.048,3,21.206,21.206,0,0,0,6.672,1.08c.223,0,.457-.008.7-.024s.493-.023.743-.023a19.907,19.907,0,0,0,4.7-.96,12.111,12.111,0,0,0,4.128-2.352,9.377,9.377,0,0,0,2.831-4.1,17.016,17.016,0,0,0,.913-4.873v-.768c0-2.929-.864-5.15-2.569-6.6a17.625,17.625,0,0,0-6.359-3.336l-2.4-.672c-.225-.064-.459-.137-.7-.216s-.485-.166-.744-.264a8.034,8.034,0,0,1-1.872-1.128,2.265,2.265,0,0,1-.864-1.849,2.332,2.332,0,0,1,.912-1.92,4.928,4.928,0,0,1,2.016-.96,2.5,2.5,0,0,1,.576-.12c.192-.016.37-.024.528-.024a8.893,8.893,0,0,1,3.336.648,11.24,11.24,0,0,1,2.9,1.7l3.725-7.259.019.011v-.048l-.019.037a20.517,20.517,0,0,0-3.173-1.429,27.839,27.839,0,0,0-3.577-1.008,16.682,16.682,0,0,0-2.3-.408,21.825,21.825,0,0,0-2.255-.12,12.612,12.612,0,0,0-8.952,3.312,11.589,11.589,0,0,0-3.528,8.832c0,3.408.856,5.766,2.544,7.008a21.24,21.24,0,0,0,6.816,3.072.842.842,0,0,0,.216.072.885.885,0,0,1,.216.072c.313.094.661.2,1.031.305l.014,0,.01,0c.371.108.758.229,1.152.36a9.04,9.04,0,0,1,2.425,1.3,2.586,2.586,0,0,1,1.08,2.16,3.027,3.027,0,0,1-1.3,2.664,5.625,5.625,0,0,1-2.88.984h-.384a9.5,9.5,0,0,1-4.488-1.1A19.5,19.5,0,0,1,140.707,144.557Zm-29.568,0-4.032,7.632a23.827,23.827,0,0,0,6.048,3,21.2,21.2,0,0,0,6.672,1.08c.223,0,.457-.008.7-.024s.494-.023.744-.023a19.907,19.907,0,0,0,4.7-.96,12.1,12.1,0,0,0,4.127-2.352,9.381,9.381,0,0,0,2.832-4.1,17.014,17.014,0,0,0,.912-4.873v-.768c0-2.93-.864-5.15-2.568-6.6a17.622,17.622,0,0,0-6.36-3.336l-2.4-.672c-.223-.064-.458-.136-.7-.216s-.487-.167-.743-.264a8.032,8.032,0,0,1-1.872-1.128,2.265,2.265,0,0,1-.864-1.849,2.33,2.33,0,0,1,.912-1.92,4.92,4.92,0,0,1,2.016-.96,2.486,2.486,0,0,1,.576-.12c.191-.016.369-.024.528-.024a8.883,8.883,0,0,1,3.335.648,11.242,11.242,0,0,1,2.9,1.7l3.725-7.259.019.011v-.048l-.019.037a20.537,20.537,0,0,0-3.173-1.429,27.84,27.84,0,0,0-3.576-1.008,16.694,16.694,0,0,0-2.3-.408,21.833,21.833,0,0,0-2.256-.12,12.611,12.611,0,0,0-8.951,3.312,11.586,11.586,0,0,0-3.528,8.832c0,3.408.856,5.766,2.543,7.008a21.256,21.256,0,0,0,6.817,3.072.841.841,0,0,0,.216.072.911.911,0,0,1,.216.072c.329.1.7.209,1.056.312s.745.225,1.152.36a9.047,9.047,0,0,1,2.424,1.3,2.586,2.586,0,0,1,1.08,2.16,3.027,3.027,0,0,1-1.3,2.664,5.624,5.624,0,0,1-2.88.984h-.383a9.5,9.5,0,0,1-4.488-1.1A19.476,19.476,0,0,1,111.139,144.557ZM93.907,118.205a18.924,18.924,0,0,0-7.248,1.656,19.737,19.737,0,0,0-6.1,4.2,18.247,18.247,0,0,0-3.96,6.1,19.357,19.357,0,0,0-1.368,7.151,19.832,19.832,0,0,0,1.417,7.512,16.839,16.839,0,0,0,4.392,6.168,20.8,20.8,0,0,0,6.312,3.912,19.8,19.8,0,0,0,7.272,1.368,17.075,17.075,0,0,0,1.848-.1,15.879,15.879,0,0,0,1.752-.288c.72-.156,1.479-.341,2.256-.552.761-.206,1.585-.457,2.448-.744V143.357a10.777,10.777,0,0,1-3.649,2.808,10.282,10.282,0,0,1-4.464,1.032,9.48,9.48,0,0,1-7.079-2.784,9.739,9.739,0,0,1-2.713-7.056,10.2,10.2,0,0,1,2.664-7.128,9.073,9.073,0,0,1,6.984-2.9,11.016,11.016,0,0,1,4.608,1.008,9.376,9.376,0,0,1,3.649,2.928V120.028a25.3,25.3,0,0,0-4.2-1.344,20.092,20.092,0,0,0-4.392-.48h-.432Z" fill="#29a5d1"/>
</svg>
