<svg xmlns="http://www.w3.org/2000/svg" width="188" height="187.999" viewBox="0 0 188 187.999">
  <path id="Sustracción_9" data-name="Sustracción 9" d="M188,188H0V0H188V188ZM96.238,152.124h0a8.286,8.286,0,0,0,3.48,6,17.507,17.507,0,0,0,6.6,2.975,14.766,14.766,0,0,0,2.016.337c.666.063,1.312.1,1.921.1,4.523,0,8.067-1.146,10.535-3.407s3.721-6.057,3.721-11.281V124.62h-8.736v2.592l-.1.048a7.4,7.4,0,0,0-3.191-2.615,10.463,10.463,0,0,0-4.056-.792,11.635,11.635,0,0,0-9.144,3.96,13.807,13.807,0,0,0-3.48,9.383,12.59,12.59,0,0,0,3.384,8.928,11.528,11.528,0,0,0,8.761,3.6,10.609,10.609,0,0,0,4.3-.815,11.426,11.426,0,0,0,3.528-2.544v1.2a10.956,10.956,0,0,1-1.032,4.968c-.684,1.354-2.226,2.04-4.584,2.04-.159,0-.328-.008-.5-.024a4.528,4.528,0,0,1-.5-.072,4.359,4.359,0,0,1-.768-.167,3.654,3.654,0,0,1-.72-.312,3.588,3.588,0,0,1-1.008-.744,2.693,2.693,0,0,1-.625-1.128Zm46.224-27.5v7.2h2.832v17.424h8.736V131.82h4.944v-7.2h-4.944v-7.392h-8.736v7.392Zm-12.479,0v24.624h8.735V124.62Zm4.368-14.352a4.712,4.712,0,0,0-3.456,1.454,4.806,4.806,0,0,0-1.44,3.49,4.9,4.9,0,1,0,8.352-3.456A4.911,4.911,0,0,0,134.35,110.268Zm-23.9,32.064a5.415,5.415,0,0,1-4.128-1.584,5.551,5.551,0,0,1-1.488-3.936,5.688,5.688,0,0,1,1.488-3.912,5.429,5.429,0,0,1,4.128-1.7,5.259,5.259,0,0,1,4.152,1.663,5.776,5.776,0,0,1,1.464,3.928,5.642,5.642,0,0,1-1.464,3.954A5.383,5.383,0,0,1,110.446,142.332Z" fill="#707070"/>
</svg>
