<svg xmlns="http://www.w3.org/2000/svg" width="188" height="187.999" viewBox="0 0 188 187.999">
  <path id="Sustracción_2" data-name="Sustracción 2" d="M188,188H0V0H188V188Zm-34.06-72.53v39.839h8.735V115.469Zm-18.049,21.407a2.774,2.774,0,0,1,2.713,1.345,7.964,7.964,0,0,1,.84,2.975c.032.375.048.763.048,1.152v12.96h8.736V139.661a12.328,12.328,0,0,0-1.848-7.008c-1.226-1.815-3.431-2.736-6.552-2.736a10.318,10.318,0,0,0-4.8,1.2,8.376,8.376,0,0,0-3.551,3.5,8.5,8.5,0,0,0-3.528-3.577,10.514,10.514,0,0,0-4.873-1.128,10.041,10.041,0,0,0-4.3.912,9.506,9.506,0,0,0-3.48,2.929h-.1v-3.073h-8.736v24.624H115.2V142.493c0-.378.016-.782.048-1.2a8.14,8.14,0,0,1,.912-3.168,3.7,3.7,0,0,1,5.856,0,8.11,8.11,0,0,1,.912,3.168c.032.414.049.818.049,1.2v12.816h8.735V142.78a7.758,7.758,0,0,1,.049-.864,8.68,8.68,0,0,1,.887-3.456C133.178,137.409,134.268,136.877,135.892,136.877Zm-48.72-6.192v7.2H90v17.424H98.74V137.885h4.945v-7.2H98.74v-7.392H90v7.392Zm-16.416,6.192c1.689,0,2.779.59,3.24,1.752a10.286,10.286,0,0,1,.7,3.816v12.864h8.736V140.285a11.714,11.714,0,0,0-2.28-7.536c-1.513-1.879-3.863-2.832-6.984-2.832a9.759,9.759,0,0,0-4.441.96,10.327,10.327,0,0,0-3.432,2.928h-.1V115.469H57.461v39.839H66.2V142.445a7.938,7.938,0,0,1,1.057-3.816A3.715,3.715,0,0,1,70.756,136.877Z" transform="translate(0)" fill="#e44f26"/>
</svg>
