<svg xmlns="http://www.w3.org/2000/svg" width="188" height="187.999" viewBox="0 0 188 187.999">
  <path id="Sustracción_1" data-name="Sustracción 1" d="M188,188H0V0H188V188Zm-46.47-43.442-4.031,7.632a23.834,23.834,0,0,0,6.047,3,21.209,21.209,0,0,0,6.673,1.08c.222,0,.456-.008.7-.024s.494-.023.744-.023a19.9,19.9,0,0,0,4.7-.96,12.1,12.1,0,0,0,4.127-2.352,9.381,9.381,0,0,0,2.832-4.1,17.014,17.014,0,0,0,.912-4.873v-.768c0-2.93-.864-5.15-2.568-6.6a17.623,17.623,0,0,0-6.36-3.336l-2.4-.672c-.223-.064-.458-.136-.7-.216s-.487-.167-.743-.264a8.036,8.036,0,0,1-1.873-1.128,2.267,2.267,0,0,1-.864-1.849,2.33,2.33,0,0,1,.913-1.92,4.92,4.92,0,0,1,2.016-.96,2.483,2.483,0,0,1,.576-.12c.191-.016.368-.024.527-.024a8.886,8.886,0,0,1,3.336.648,11.241,11.241,0,0,1,2.9,1.7l3.725-7.259.019.011v-.048l-.019.037a20.537,20.537,0,0,0-3.173-1.429,27.833,27.833,0,0,0-3.576-1.008,16.727,16.727,0,0,0-2.3-.408,21.833,21.833,0,0,0-2.256-.12,12.611,12.611,0,0,0-8.951,3.312,11.586,11.586,0,0,0-3.528,8.832c0,3.408.856,5.766,2.543,7.008a21.258,21.258,0,0,0,6.817,3.072.841.841,0,0,0,.216.072.89.89,0,0,1,.215.072c.338.1.708.21,1.057.312.37.108.757.229,1.152.36a9.047,9.047,0,0,1,2.424,1.3,2.586,2.586,0,0,1,1.08,2.16,3.027,3.027,0,0,1-1.3,2.664,5.624,5.624,0,0,1-2.88.984h-.383a9.5,9.5,0,0,1-4.488-1.1A19.511,19.511,0,0,1,141.53,144.557Zm-24.24.671-5.376,5.76a11.842,11.842,0,0,0,3.911,3.888,10.269,10.269,0,0,0,5.352,1.392c3.981,0,7.01-1.171,9-3.48a13.716,13.716,0,0,0,3-9.239V119.117h-9.408v24.912c0,.284-.016.591-.048.912a6.39,6.39,0,0,1-.624,2.328,2.038,2.038,0,0,1-2.016,1.08,1.877,1.877,0,0,1-.7-.144,3.333,3.333,0,0,1-.7-.384,7.926,7.926,0,0,1-1.056-.936c-.347-.361-.686-.741-1.008-1.128-.066-.1-.121-.184-.168-.264S117.351,145.319,117.291,145.229Z" fill="#ffca28"/>
</svg>
