<svg xmlns="http://www.w3.org/2000/svg" width="188" height="187.999" viewBox="0 0 188 187.999">
  <path id="Sustracción_10" data-name="Sustracción 10" d="M188,188H0V0H188V188Zm-33.408-58.083a14.01,14.01,0,0,0-9.816,3.5c-2.532,2.326-3.816,5.572-3.816,9.648,0,4.236,1.373,7.506,4.081,9.72a15.612,15.612,0,0,0,10.175,3.336,16.021,16.021,0,0,0,7.848-2,9.488,9.488,0,0,0,4.68-6.4h-8.4a4.432,4.432,0,0,1-1.752,1.728,5.278,5.278,0,0,1-2.424.527,5.5,5.5,0,0,1-4.08-1.416,5.641,5.641,0,0,1-1.392-4.1H168.08V143.6c0-4.172-1.187-7.531-3.528-9.984S158.86,129.917,154.592,129.917Zm-33.648,0a11.338,11.338,0,0,0-8.9,3.912,13.953,13.953,0,0,0,.048,18.383,11.485,11.485,0,0,0,8.952,3.912h.384a1.6,1.6,0,0,0,.383-.048,10.222,10.222,0,0,0,3.793-.936,6.516,6.516,0,0,0,2.88-2.569h.1v2.736h8.736V115.469h-8.736v17.663a8.108,8.108,0,0,0-3-2.232,11.27,11.27,0,0,0-3.672-.936,2.491,2.491,0,0,0-.48-.048Zm-29.664-.048v.048h-.006a16.569,16.569,0,0,0-10.385,3.431,11.618,11.618,0,0,0-4.441,9.72c0,4.172,1.5,7.426,4.464,9.672a17.561,17.561,0,0,0,20.76-.024,11.5,11.5,0,0,0,4.44-9.648,11.618,11.618,0,0,0-4.44-9.72A16.808,16.808,0,0,0,91.28,129.869Zm-31.44,7.007c1.5,0,2.514.428,3.024,1.273a6.035,6.035,0,0,1,.864,2.759,9.579,9.579,0,0,1,.048.96v13.44h8.736V140.141a12.01,12.01,0,0,0-2.136-7.392c-1.417-1.879-3.815-2.832-7.128-2.832a10.674,10.674,0,0,0-4.441.864,8.706,8.706,0,0,0-3.432,3.072h-.1v-3.168H46.544v24.624H55.28v-12.72a8.068,8.068,0,0,1,.96-4.008C56.877,137.45,58.089,136.877,59.84,136.877Zm63.408,11.713a5.411,5.411,0,0,1-4.127-1.584,5.555,5.555,0,0,1-1.489-3.937,5.684,5.684,0,0,1,1.489-3.911,5.43,5.43,0,0,1,4.127-1.7,5.263,5.263,0,0,1,4.153,1.663,5.78,5.78,0,0,1,1.463,3.929A5.641,5.641,0,0,1,127.4,147,5.384,5.384,0,0,1,123.248,148.589Zm-31.968,0a5.411,5.411,0,0,1-4.127-1.584,5.555,5.555,0,0,1-1.489-3.937,5.684,5.684,0,0,1,1.489-3.911,5.43,5.43,0,0,1,4.127-1.7,5.263,5.263,0,0,1,4.153,1.663,5.78,5.78,0,0,1,1.463,3.929A5.641,5.641,0,0,1,95.432,147,5.384,5.384,0,0,1,91.28,148.589Zm68.688-9.168H149.84a4.355,4.355,0,0,1,1.824-2.868,5.885,5.885,0,0,1,3.36-.972,5.231,5.231,0,0,1,3.192,1.057,4.425,4.425,0,0,1,1.751,2.783Z" fill="#b3d107"/>
</svg>
