<svg xmlns="http://www.w3.org/2000/svg" width="188" height="187.999" viewBox="0 0 188 187.999">
  <path id="Sustracción_3" data-name="Sustracción 3" d="M188,188H0V0H188V188Zm-49.355-58.083a13.872,13.872,0,0,0-9.792,3.72,12.682,12.682,0,0,0-3.983,9.672,11.965,11.965,0,0,0,3.96,9.192,13.551,13.551,0,0,0,9.432,3.624,14.959,14.959,0,0,0,3.144-.336,12.651,12.651,0,0,0,3-1.057v-7.344a5.872,5.872,0,0,1-1.56,1.032,6.879,6.879,0,0,1-1.8.552,4.533,4.533,0,0,1-.5.072c-.176.016-.345.024-.5.024a6.053,6.053,0,0,1-4.416-1.7,5.865,5.865,0,0,1-1.728-4.344,5.787,5.787,0,0,1,1.752-4.272,5.851,5.851,0,0,1,4.248-1.728,5.963,5.963,0,0,1,2.4.5,12.28,12.28,0,0,1,2.111,1.176v-7.344a11.207,11.207,0,0,0-2.759-1.08A12.569,12.569,0,0,0,138.645,129.917Zm-34.176,0a11.338,11.338,0,0,0-8.9,3.912,13.95,13.95,0,0,0,.048,18.383,11.485,11.485,0,0,0,8.952,3.912h.383a1.609,1.609,0,0,0,.384-.048,10.22,10.22,0,0,0,3.792-.936,6.516,6.516,0,0,0,2.88-2.569h.1v2.736h8.736V130.685H112.1v2.448a8.118,8.118,0,0,0-3-2.232,11.281,11.281,0,0,0-3.672-.936,2.5,2.5,0,0,0-.481-.048Zm-28.032,0a14.006,14.006,0,0,0-9.815,3.5c-2.532,2.325-3.816,5.571-3.816,9.648,0,4.236,1.373,7.507,4.08,9.72a15.613,15.613,0,0,0,10.176,3.336,16.026,16.026,0,0,0,7.848-2,9.493,9.493,0,0,0,4.68-6.4h-8.4a4.435,4.435,0,0,1-1.751,1.728,5.286,5.286,0,0,1-2.425.527,5.5,5.5,0,0,1-4.08-1.416,5.641,5.641,0,0,1-1.392-4.1H89.925V143.6c0-4.172-1.187-7.531-3.528-9.984S80.705,129.917,76.437,129.917Zm71.376.768v7.2h2.832v17.424h8.735V137.885h4.945v-7.2h-4.945v-7.392h-8.735v7.392Zm-106.224,10.7h.1l8.88,13.919H62.277L50.934,140.52a8.709,8.709,0,0,0,5.847-3.571,11.329,11.329,0,0,0,2.04-6.647c0-3.854-1.211-6.7-3.6-8.473a14.982,14.982,0,0,0-8.976-2.712H32.181v36.192h9.408V141.39Zm65.184,7.2a5.415,5.415,0,0,1-4.128-1.584,5.555,5.555,0,0,1-1.488-3.937,5.683,5.683,0,0,1,1.488-3.911,5.433,5.433,0,0,1,4.128-1.7,5.259,5.259,0,0,1,4.152,1.663,5.777,5.777,0,0,1,1.464,3.929A5.638,5.638,0,0,1,110.925,147,5.38,5.38,0,0,1,106.773,148.589Zm-24.96-9.168H71.685a4.355,4.355,0,0,1,1.824-2.868,5.889,5.889,0,0,1,3.36-.972,5.231,5.231,0,0,1,3.192,1.057,4.431,4.431,0,0,1,1.752,2.783Zm-38.4-4.032h-.432a2.479,2.479,0,0,1-.48-.048h-.913v-9.024h1.824a9.344,9.344,0,0,1,3.864.994c1.163.6,1.752,1.8,1.752,3.566,0,1.752-.59,2.939-1.752,3.528A9.42,9.42,0,0,1,43.413,135.389Z" fill="#00daff"/>
</svg>
