<svg xmlns="http://www.w3.org/2000/svg" width="188" height="187.999" viewBox="0 0 188 187.999">
  <path id="Sustracción_6" data-name="Sustracción 6" d="M188,188H0V0H188V188Zm-37.615-50.74a10.212,10.212,0,0,0-7.158,2.555,9.112,9.112,0,0,0-2.782,7.034,8.66,8.66,0,0,0,2.974,7.088,11.389,11.389,0,0,0,7.42,2.433,11.684,11.684,0,0,0,5.722-1.462,6.921,6.921,0,0,0,3.413-4.664h-6.125a3.233,3.233,0,0,1-1.277,1.26,3.845,3.845,0,0,1-1.768.385,4.009,4.009,0,0,1-2.975-1.032,4.112,4.112,0,0,1-1.015-2.992h13.406v-.63a10.148,10.148,0,0,0-2.573-7.28A9.6,9.6,0,0,0,150.386,137.259Zm-69.755,0a8.265,8.265,0,0,0-6.492,2.852,10.174,10.174,0,0,0,.034,13.405,8.375,8.375,0,0,0,6.528,2.852h.28a1.144,1.144,0,0,0,.28-.035,7.458,7.458,0,0,0,2.766-.682,4.75,4.75,0,0,0,2.1-1.873h.07v2h6.37V137.819H86.2V139.6a5.912,5.912,0,0,0-2.188-1.627,8.179,8.179,0,0,0-2.677-.682,1.775,1.775,0,0,0-.35-.035Zm36.715.56,9.415,17.955h4.06l9.38-17.955h-7.14l-4.27,9.205-4.306-9.205h-7.14Zm-7.945,0v17.955h6.37V137.819Zm-14.07,0v5.25H97.4v12.705h6.37V143.068h3.605v-5.25h-3.605v-5.39H97.4v5.39ZM49.1,139.6h.069l12.565,16.17h6.861v-26.39H61.73v16.134h-.069L49.1,129.384H42.235v26.39H49.1V139.6Zm63.49-12.25a3.437,3.437,0,0,0-2.52,1.06,3.5,3.5,0,0,0-1.05,2.545,3.57,3.57,0,1,0,6.09-2.52A3.58,3.58,0,0,0,112.586,127.354ZM142.37,91.259a10.114,10.114,0,0,0-7.14,2.712,9.249,9.249,0,0,0-2.905,7.053,8.728,8.728,0,0,0,2.888,6.7,9.884,9.884,0,0,0,6.877,2.642,10.945,10.945,0,0,0,2.293-.245,9.278,9.278,0,0,0,2.187-.77V104a4.3,4.3,0,0,1-1.138.752,4.972,4.972,0,0,1-1.312.4,3.523,3.523,0,0,1-.367.053c-.125.011-.249.017-.368.017a4.416,4.416,0,0,1-3.22-1.242,4.28,4.28,0,0,1-1.26-3.168,4.22,4.22,0,0,1,1.278-3.115,4.267,4.267,0,0,1,3.1-1.26,4.341,4.341,0,0,1,1.75.367,8.965,8.965,0,0,1,1.54.858V92.308a8.168,8.168,0,0,0-2.012-.787A9.2,9.2,0,0,0,142.37,91.259Zm-24.919,0a8.266,8.266,0,0,0-6.493,2.852,10.172,10.172,0,0,0,.035,13.4,8.372,8.372,0,0,0,6.527,2.853h.28a1.159,1.159,0,0,0,.281-.035,7.465,7.465,0,0,0,2.765-.682,4.754,4.754,0,0,0,2.1-1.873h.07v2h6.37V91.819h-6.37V93.6a5.907,5.907,0,0,0-2.188-1.627,8.2,8.2,0,0,0-2.677-.683,1.846,1.846,0,0,0-.35-.034Zm-20.441,0a10.214,10.214,0,0,0-7.157,2.554,9.116,9.116,0,0,0-2.783,7.035,8.66,8.66,0,0,0,2.975,7.088,11.384,11.384,0,0,0,7.42,2.433,11.679,11.679,0,0,0,5.722-1.462,6.918,6.918,0,0,0,3.413-4.664h-6.125A3.226,3.226,0,0,1,99.2,105.5a3.839,3.839,0,0,1-1.768.385,4,4,0,0,1-2.975-1.032,4.112,4.112,0,0,1-1.015-2.993h13.4v-.63a10.151,10.151,0,0,0-2.572-7.28A9.608,9.608,0,0,0,97.01,91.259Zm52.045.56v5.25h2.066v12.705h6.369V97.069H161.1v-5.25H157.49v-5.39h-6.369v5.39ZM71.6,99.624h.07l6.475,10.15h8.54L78.414,98.989a6.345,6.345,0,0,0,4.263-2.6,8.262,8.262,0,0,0,1.488-4.847c0-2.81-.883-4.889-2.624-6.178A10.923,10.923,0,0,0,75,83.384H64.741v26.39H71.6V99.625Zm10.71,51.25a3.942,3.942,0,0,1-3.01-1.155,4.046,4.046,0,0,1-1.085-2.87A4.143,4.143,0,0,1,79.3,144a3.956,3.956,0,0,1,3.01-1.243,3.835,3.835,0,0,1,3.028,1.213,4.211,4.211,0,0,1,1.067,2.865,4.115,4.115,0,0,1-1.067,2.883A3.927,3.927,0,0,1,82.31,150.873Zm72-6.684h-7.385a3.172,3.172,0,0,1,1.33-2.092,4.294,4.294,0,0,1,2.45-.708,3.815,3.815,0,0,1,2.327.77,3.236,3.236,0,0,1,1.278,2.029ZM119.13,104.873a3.942,3.942,0,0,1-3.01-1.155,4.048,4.048,0,0,1-1.085-2.87A4.143,4.143,0,0,1,116.121,98a3.955,3.955,0,0,1,3.01-1.243,3.835,3.835,0,0,1,3.028,1.213,4.211,4.211,0,0,1,1.067,2.865,4.115,4.115,0,0,1-1.067,2.883A3.927,3.927,0,0,1,119.13,104.873Zm-18.2-6.684H93.545a3.176,3.176,0,0,1,1.33-2.092,4.294,4.294,0,0,1,2.45-.709,3.817,3.817,0,0,1,2.328.77,3.234,3.234,0,0,1,1.277,2.029Zm-28-2.94h-.315a1.764,1.764,0,0,1-.35-.035H71.6v-6.58h1.33a6.805,6.805,0,0,1,2.817.725,2.648,2.648,0,0,1,1.278,2.6,2.614,2.614,0,0,1-1.278,2.573A6.883,6.883,0,0,1,72.931,95.249Z" transform="translate(0)" fill="#00daff"/>
</svg>
