<svg xmlns="http://www.w3.org/2000/svg" width="188" height="187.999" viewBox="0 0 188 187.999">
  <path id="Sustracción_7" data-name="Sustracción 7" d="M188,188H0V0H188V188ZM90,154.848a1.959,1.959,0,0,0-.754.784,2.087,2.087,0,0,0-.285,1,1.843,1.843,0,0,0,.2.842,2.2,2.2,0,0,0,.586.71,2.949,2.949,0,0,0,.938.49,3.979,3.979,0,0,0,1.246.184,4.926,4.926,0,0,0,2.029-.41,6.145,6.145,0,0,0,1.677-1.12,8.9,8.9,0,0,0,1.392-1.685,21.022,21.022,0,0,0,1.186-2.1c.39-.81.777-1.69,1.15-2.615.387-.961.774-1.942,1.149-2.915.389-1.007.793-2.062,1.2-3.135s.846-2.172,1.3-3.273c.444-1.081.914-2.2,1.4-3.333s.984-2.274,1.472-3.37c.5-1.112,1-2.219,1.5-3.289s1.01-2.12,1.5-3.1c.519-1.032,1-1.947,1.458-2.8.47-.868.931-1.668,1.369-2.38a5.555,5.555,0,0,0-.864-.345,3.193,3.193,0,0,0-.937-.14,3.55,3.55,0,0,0-.594.051,2.4,2.4,0,0,0-.579.176,1.916,1.916,0,0,0-.5.329,1.435,1.435,0,0,0-.359.527c-.559,1.387-1.071,2.669-1.567,3.919-.523,1.316-1.066,2.694-1.612,4.094-.5,1.275-1.017,2.619-1.589,4.109l-.013.034-.01.026c-.52,1.358-1.012,2.642-1.493,3.9-.156-.7-.347-1.47-.571-2.292-.237-.87-.465-1.685-.7-2.49-.244-.851-.483-1.659-.711-2.4-.248-.812-.449-1.476-.615-2.03-.224-.72-.45-1.425-.674-2.094-.232-.7-.466-1.372-.7-2.007s-.443-1.215-.644-1.751-.382-.985-.535-1.34a4.525,4.525,0,0,0-1.092-.381,4.709,4.709,0,0,0-.857-.088,1.777,1.777,0,0,0-1.179.308.956.956,0,0,0-.345.733,1.1,1.1,0,0,0,.037.263,3.039,3.039,0,0,0,.139.4c.5,1.257,1,2.593,1.5,3.97s.993,2.812,1.472,4.277c.593,1.817,1.174,3.663,1.728,5.486s1.086,3.729,1.582,5.676l.572.073-.293.777c-.668,1.745-1.287,3.29-1.838,4.592a23.238,23.238,0,0,1-1.648,3.26,6.686,6.686,0,0,1-1.743,1.948,3.632,3.632,0,0,1-2.124.645,4.6,4.6,0,0,1-1.128-.162A4.487,4.487,0,0,1,90,154.848ZM57.156,135.41c-.1,1.684-.169,3.148-.212,4.351s-.066,2.152-.066,2.813a1.137,1.137,0,0,0,.549.857,5.33,5.33,0,0,0,1.509.74,13.694,13.694,0,0,0,2.234.52,17.913,17.913,0,0,0,2.724.2,14.86,14.86,0,0,0,2.388-.212,13.714,13.714,0,0,0,2.578-.7,12.389,12.389,0,0,0,2.483-1.274,9.3,9.3,0,0,0,2.116-1.94,9.2,9.2,0,0,0,1.472-2.7,10.69,10.69,0,0,0,.55-3.559,7.7,7.7,0,0,0-.3-2.212,7.477,7.477,0,0,0-.821-1.823,7.946,7.946,0,0,0-1.23-1.509,12.582,12.582,0,0,0-1.545-1.259c-.549-.381-1.138-.748-1.75-1.092s-1.221-.673-1.838-1-1.206-.655-1.773-.967c-.582-.32-1.143-.662-1.669-1.018a13.9,13.9,0,0,1-1.465-1.136,7.017,7.017,0,0,1-1.165-1.333,6.171,6.171,0,0,1-1.048-3.544,5.966,5.966,0,0,1,.483-2.417,5.79,5.79,0,0,1,1.334-1.9,6.117,6.117,0,0,1,2.014-1.245,6.981,6.981,0,0,1,2.512-.447,7.682,7.682,0,0,1,2.453.374,5.111,5.111,0,0,1,1.89,1.113,5.021,5.021,0,0,1,1.216,1.846,7.025,7.025,0,0,1,.432,2.556c0,.314-.015.654-.044,1.011l1.48.074c.036-.669.071-1.352.1-2.029s.052-1.259.066-1.773q.022-.813.037-1.45c.01-.41.014-.767.014-1.062a1.122,1.122,0,0,0-.308-.747,3.176,3.176,0,0,0-.82-.644,6.812,6.812,0,0,0-1.18-.52,13.158,13.158,0,0,0-1.4-.389,14.085,14.085,0,0,0-1.464-.241,12.632,12.632,0,0,0-1.377-.081,12.041,12.041,0,0,0-2.747.315,11,11,0,0,0-2.52.923,10.539,10.539,0,0,0-2.168,1.487,9.461,9.461,0,0,0-1.7,2,9.762,9.762,0,0,0-1.105,2.462,10.226,10.226,0,0,0-.4,2.893,8.076,8.076,0,0,0,.3,2.271,7.751,7.751,0,0,0,.82,1.875,7.883,7.883,0,0,0,1.238,1.546,13.839,13.839,0,0,0,1.553,1.3,20.5,20.5,0,0,0,1.75,1.128c.608.35,1.226.7,1.839,1.026s1.182.653,1.728.959c.563.315,1.107.65,1.619,1a13.309,13.309,0,0,1,1.42,1.106A7.2,7.2,0,0,1,71.08,133.2a6.041,6.041,0,0,1,.747,1.524,5.878,5.878,0,0,1,.271,1.823,6.227,6.227,0,0,1-.586,2.762,5.922,5.922,0,0,1-1.575,2,6.749,6.749,0,0,1-2.292,1.209,9.334,9.334,0,0,1-2.754.4,9.608,9.608,0,0,1-2.614-.33,5.036,5.036,0,0,1-1.993-1.062,4.772,4.772,0,0,1-1.274-1.9,7.98,7.98,0,0,1-.446-2.835c0-.223,0-.434.014-.644s.029-.433.059-.674Zm94.1,3.295h0a4.586,4.586,0,0,0-1,.14,3.059,3.059,0,0,0-.886.373,1.964,1.964,0,0,0-.637.644,1.829,1.829,0,0,0-.242.967,2.494,2.494,0,0,0,.3,1.209,3.584,3.584,0,0,0,.82,1,5.859,5.859,0,0,0,1.216.791,9.531,9.531,0,0,0,1.472.578,10.785,10.785,0,0,0,1.6.352,11.47,11.47,0,0,0,1.6.117,10.749,10.749,0,0,0,3-.418,8.229,8.229,0,0,0,2.556-1.223,6.226,6.226,0,0,0,1.78-1.977,5.355,5.355,0,0,0,.666-2.68,4.34,4.34,0,0,0-.535-2.191,6.092,6.092,0,0,0-1.4-1.648,10.8,10.8,0,0,0-1.963-1.282c-.733-.376-1.477-.743-2.212-1.091-.668-.315-1.311-.63-1.912-.938a10.8,10.8,0,0,1-1.618-1,4.926,4.926,0,0,1-1.129-1.172,2.557,2.557,0,0,1-.425-1.443,2.651,2.651,0,0,1,.3-1.216,3.315,3.315,0,0,1,.864-1.048,4.411,4.411,0,0,1,1.384-.74,5.808,5.808,0,0,1,1.86-.278,5.685,5.685,0,0,1,1.194.131,3.75,3.75,0,0,1,1.106.425,2.673,2.673,0,0,1,.827.755,1.981,1.981,0,0,1,.345,1.135,3.417,3.417,0,0,1-.088.733,4.753,4.753,0,0,1-.293.864l.044.147a4.761,4.761,0,0,0,1.289.19,2.542,2.542,0,0,0,1.113-.248,2.283,2.283,0,0,0,.733-.579,2.15,2.15,0,0,0,.4-.74,2.6,2.6,0,0,0,.117-.733,2.839,2.839,0,0,0-.461-1.582,4.008,4.008,0,0,0-1.246-1.193,6.224,6.224,0,0,0-1.831-.747,9.349,9.349,0,0,0-2.219-.257,10.813,10.813,0,0,0-1.868.168,10.339,10.339,0,0,0-1.868.513,9.216,9.216,0,0,0-1.706.857,6.84,6.84,0,0,0-1.406,1.193,5.374,5.374,0,0,0-.959,1.531,4.836,4.836,0,0,0-.352,1.86,4.961,4.961,0,0,0,1.018,3.1,6.666,6.666,0,0,0,1.113,1.135,12.22,12.22,0,0,0,1.37.952c.5.3,1.006.57,1.516.813s1.026.488,1.56.74c.612.3,1.166.569,1.692.835a8.58,8.58,0,0,1,1.428.894,4.2,4.2,0,0,1,.981,1.069,2.523,2.523,0,0,1,.366,1.363,2.673,2.673,0,0,1-.344,1.347,3.187,3.187,0,0,1-.916,1.011,4.36,4.36,0,0,1-1.318.63,5.5,5.5,0,0,1-1.553.22,6.3,6.3,0,0,1-1.735-.249,5.14,5.14,0,0,1-1.589-.761,4.329,4.329,0,0,1-1.8-3.237l-.117-.1ZM125.447,125.14a1.753,1.753,0,0,1,.784.147.959.959,0,0,1,.432.454,2.328,2.328,0,0,1,.191.776c.029.312.043.687.043,1.113,0,1.064-.039,2.15-.117,3.23-.082,1.144-.166,2.179-.257,3.164-.1,1.086-.182,2.03-.256,2.885-.078.9-.118,1.7-.118,2.38a8.4,8.4,0,0,0,.359,2.637,4.743,4.743,0,0,0,.959,1.721,3.534,3.534,0,0,0,1.37.938,4.6,4.6,0,0,0,1.6.285,5.036,5.036,0,0,0,2.344-.652,8.246,8.246,0,0,0,2.454-2.175,20.039,20.039,0,0,0,2.388-4.014,38.659,38.659,0,0,0,2.16-6.167l.161.03c-.085.644-.161,1.257-.227,1.823-.063.548-.114,1.067-.154,1.545-.04.5-.069.947-.087,1.363s-.03.856-.03,1.274a12.288,12.288,0,0,0,.374,3.281,6.167,6.167,0,0,0,.989,2.109,3.555,3.555,0,0,0,1.413,1.129,4.231,4.231,0,0,0,1.648.337,5.649,5.649,0,0,0,1.334-.161,6.587,6.587,0,0,0,1.259-.446,7.6,7.6,0,0,0,1.143-.674,7.126,7.126,0,0,0,.967-.828l-.483-.673c-.127.084-.268.173-.418.264a4.38,4.38,0,0,1-.535.271,4.7,4.7,0,0,1-.623.212,2.589,2.589,0,0,1-.666.087,2.243,2.243,0,0,1-1.136-.329,2.809,2.809,0,0,1-1-1.2,9.131,9.131,0,0,1-.717-2.388,22.47,22.47,0,0,1-.278-3.9c0-.835.015-1.762.043-2.754s.074-2.019.132-3.054c.06-1.059.126-2.108.2-3.12s.152-2,.241-2.952l-.234-.014-3.106.381a36.878,36.878,0,0,1-1.069,6.936A34.9,34.9,0,0,1,136.9,136.2a14.133,14.133,0,0,1-2.49,3.919,3.693,3.693,0,0,1-2.549,1.34,2.164,2.164,0,0,1-1.758-.805,4.024,4.024,0,0,1-.66-2.549c0-.385.022-.875.067-1.458.047-.613.1-1.256.161-1.912.064-.7.133-1.442.205-2.2s.142-1.561.205-2.336.118-1.566.161-2.308c.044-.764.066-1.481.066-2.131a7.612,7.612,0,0,0-.081-1.172,2.626,2.626,0,0,0-.285-.879,1.426,1.426,0,0,0-.542-.556,1.754,1.754,0,0,0-.865-.191,5.212,5.212,0,0,0-.827.1c-.375.068-.838.172-1.377.308s-1.156.31-1.846.52-1.435.457-2.234.74l.22,1.055c.581-.165,1.146-.3,1.678-.4A7.6,7.6,0,0,1,125.447,125.14Zm-44.517.323h0c-.1.945-.187,1.906-.264,2.855s-.141,1.929-.19,2.9c-.048.931-.087,1.894-.118,2.864-.029.937-.043,1.862-.043,2.747a19.5,19.5,0,0,0,.329,3.926,7.415,7.415,0,0,0,.923,2.468,3.3,3.3,0,0,0,1.407,1.274,4.412,4.412,0,0,0,1.795.359,7.152,7.152,0,0,0,1.581-.191,12.024,12.024,0,0,0,1.729-.542,17.443,17.443,0,0,0,1.816-.842c.611-.324,1.227-.691,1.831-1.091a1.56,1.56,0,0,0-.454-.967,13.567,13.567,0,0,1-2.219.893,6.483,6.483,0,0,1-1.765.279,3.359,3.359,0,0,1-1.816-.454,3.078,3.078,0,0,1-1.128-1.311,6.932,6.932,0,0,1-.571-2.087,21.737,21.737,0,0,1-.161-2.8c0-.549.009-1.191.029-1.963s.052-1.584.1-2.446.1-1.818.175-2.805c.075-1.007.166-2.034.272-3.054.965.07,1.845.144,2.615.22.789.078,1.516.117,2.161.117a4.861,4.861,0,0,0,1.545-.19.8.8,0,0,0,.535-.835,1.846,1.846,0,0,0-.044-.381c-.03-.139-.07-.292-.117-.454a12.179,12.179,0,0,1-2.183.161h-.77c-.318,0-.663,0-1.025-.014l-1.216-.03c-.448-.01-.9-.025-1.34-.044.2-1.926.435-3.894.71-5.852s.623-3.9,1.032-5.749a3.061,3.061,0,0,0-.724-.293,3.437,3.437,0,0,0-.872-.1,3.18,3.18,0,0,0-.6.059,1.918,1.918,0,0,0-.571.2,1.549,1.549,0,0,0-.461.4,1.437,1.437,0,0,0-.272.63c-.253,1.419-.509,3.055-.761,4.863s-.5,3.766-.717,5.786a13.193,13.193,0,0,0-1.641.205,6.96,6.96,0,0,0-1.283.366,2.9,2.9,0,0,0-.834.491.784.784,0,0,0-.3.579.45.45,0,0,0,.044.205,10.748,10.748,0,0,1,1.692-.257c.668-.054,1.39-.086,2.144-.094Zm37.046-21.153a3.95,3.95,0,0,0-.754.073,2.588,2.588,0,0,0-.674.228,1.4,1.4,0,0,0-.491.41,1.076,1.076,0,0,0-.205.608c-.066,1-.138,2.156-.22,3.545l-.129,2.208-.12,2.062c-.1,1.667-.182,3.2-.263,4.687-.085,1.55-.168,3.167-.249,4.805-.074,1.493-.148,3.043-.22,4.607-.068,1.473-.13,2.853-.184,4.1-.057,1.338-.1,2.414-.124,3.289-.029.928-.044,1.66-.044,2.175,0,1.4.022,2.592.066,3.552a11.573,11.573,0,0,0,.308,2.366,2.594,2.594,0,0,0,.7,1.31,1.846,1.846,0,0,0,1.253.4,5.745,5.745,0,0,0,1.457-.227,13.949,13.949,0,0,0,1.722-.594,17.059,17.059,0,0,0,1.677-.805,9.111,9.111,0,0,0,1.326-.864l-.278-.761a10.276,10.276,0,0,1-1.648.593,6.057,6.057,0,0,1-1.516.212,2.386,2.386,0,0,1-.66-.081,1,1,0,0,1-.483-.315,1.885,1.885,0,0,1-.344-.673,6.275,6.275,0,0,1-.221-1.157c-.054-.484-.093-1.076-.117-1.758s-.036-1.52-.036-2.49c0-1.545.029-3.171.087-4.834s.141-3.376.249-5.135c.107-1.737.235-3.523.381-5.31.147-1.806.308-3.612.476-5.368s.35-3.526.542-5.288c.195-1.778.389-3.5.579-5.1A4.256,4.256,0,0,0,117.977,104.311Z" fill="#b3d107"/>
</svg>
